<?xml version="1.0" encoding="iso-8859-1"?>
<svg xmlns="http://www.w3.org/2000/svg" xmlns:xlink="http://www.w3.org/1999/xlink" version="1.1" fill='#ffffff' viewBox="-104 -104 710 710">
<path d="M412.879,313.757h-57.758V198.242h57.758c54.655,0,99.121-44.466,99.121-99.121C512,44.466,467.534,0,412.879,0    c-54.656,0-99.122,44.466-99.122,99.121v57.757H198.242V99.121C198.242,44.466,153.776,0,99.121,0C44.466,0,0,44.465,0,99.121    c0,54.656,44.466,99.122,99.121,99.122h57.757v115.513H99.121C44.466,313.757,0,358.223,0,412.879    C0,467.534,44.467,512,99.122,512c54.655,0,99.121-44.466,99.121-99.121v-57.758h115.513v57.758    c0,54.655,44.466,99.121,99.122,99.121C467.534,512,512,467.534,512,412.879C512,358.223,467.534,313.757,412.879,313.757z     M355.121,99.121c0-31.847,25.911-57.757,57.758-57.757c31.847,0,57.757,25.91,57.757,57.758c0,31.847-25.91,57.757-57.757,57.757    h-57.758V99.121z M156.878,412.879c0,31.847-25.91,57.757-57.757,57.757c-31.847,0-57.757-25.91-57.757-57.757    c0-31.847,25.91-57.758,57.757-57.758h57.757V412.879z M156.878,156.878H99.121c-31.847,0-57.757-25.91-57.757-57.757    c0-31.847,25.91-57.757,57.757-57.757c31.847,0,57.758,25.91,57.757,57.757V156.878z M313.758,313.757H198.243V198.243h115.514    V313.757z M412.879,470.636c-31.847,0-57.758-25.91-57.758-57.757v-57.758h57.758c31.847,0,57.757,25.911,57.757,57.758    C470.636,444.726,444.726,470.636,412.879,470.636z"/>
</svg>