<svg version="1.1" xmlns="http://www.w3.org/2000/svg" viewBox="0 0 8.64 8.64" xmlns:xlink="http://www.w3.org/1999/xlink" enable-background="new 0 0 8.64 8.64">
  <path fill="#ffffff" d="m6.919,3.296c0.17-1.051-0.307-2.145-1.283-2.709-1.262-0.73-2.878-0.297-3.607,0.966-0.317,0.549-0.414,1.165-0.318,1.746-0.999,0.376-1.711,1.338-1.711,2.469 0,1.458 1.182,2.64 2.64,2.64 0.638,0 1.224-0.227 1.68-0.603 0.456,0.376 1.042,0.603 1.68,0.603 1.458,0 2.641-1.182 2.641-2.64-0.001-1.135-0.718-2.099-1.722-2.472zm-4.474-1.504c0.596-1.033 1.918-1.387 2.951-0.79 0.784,0.453 1.176,1.323 1.059,2.167-0.149-0.025-0.3-0.042-0.455-0.042-0.638,0-1.224,0.227-1.68,0.604-0.457-0.377-1.042-0.604-1.68-0.604-0.158,0-0.311,0.017-0.461,0.043-0.065-0.46 0.016-0.944 0.266-1.378zm3.888,1.844c-0.04,0.108-0.087,0.214-0.147,0.317-0.251,0.434-0.631,0.747-1.062,0.922-0.107-0.295-0.263-0.566-0.46-0.802 0.367-0.29 0.831-0.466 1.336-0.466 0.114,0 0.225,0.012 0.333,0.029zm-1.675,1.369c-0.222,0.036-0.45,0.036-0.676,0.001 0.082-0.217 0.195-0.418 0.338-0.594 0.142,0.176 0.256,0.377 0.338,0.593zm-.681-.932c-0.198,0.236-0.355,0.508-0.461,0.804-0.095-0.038-0.189-0.08-0.28-0.133-0.449-0.26-0.77-0.656-0.94-1.106 0.112-0.018 0.227-0.03 0.344-0.03 0.505-0.001 0.969,0.175 1.337,0.465zm-1.337,3.854c-1.193,0-2.16-0.967-2.16-2.159 0-0.907 0.56-1.683 1.352-2.003 0.204,0.567 0.601,1.068 1.163,1.394 0.13,0.075 0.264,0.135 0.4,0.185-0.022,0.138-0.035,0.28-0.035,0.424 0,0.645 0.232,1.235 0.617,1.694-0.368,0.29-0.832,0.465-1.337,0.465zm1.2-2.159c0-0.102 0.012-0.199 0.026-0.297 0.304,0.053 0.61,0.053 0.908,0 0.014,0.098 0.026,0.196 0.026,0.297 0,0.514-0.181,0.985-0.48,1.355-0.3-0.37-0.48-0.841-0.48-1.355zm2.16,2.159c-0.505,0-0.969-0.175-1.336-0.465 0.383-0.459 0.616-1.049 0.616-1.694 0-0.145-0.014-0.286-0.035-0.424 0.552-0.208 1.039-0.601 1.357-1.151 0.081-0.14 0.145-0.284 0.197-0.431 0.797,0.318 1.36,1.096 1.36,2.006 0.001,1.192-0.966,2.159-2.159,2.159z"/>
</svg>
